#!OML:ASF E:\emotionWalksFemale\Project 1\Capture day 1\Session 1\Female1.ASF
:FULLY-SPECIFIED
:DEGREES
2219
root 10.5122 15.6574 2.67496 0.741735 -6.6343 -0.233938
lowerback 6.97915 1.28433 0.680136
upperback -1.37723 1.80686 0.619106
thorax -5.34706 0.881354 0.0537708
lowerneck -4.74316 -3.8117 -4.01558
upperneck 44.5737 -8.89168 8.21391
head 18.1194 -3.38742 3.20553
rclavicle -6.32384e-015 -5.1684e-015
rhumerus -41.393 -1.93854 -80.4577
rradius 31.3612
rwrist 17.4939
rhand -10.4679 -48.8869
rfingers 7.12502
rthumb 15.533 -78.283
lclavicle -6.32384e-015 -5.1684e-015
lhumerus -34.1886 8.19136 80.7358
lradius 37.5356
lwrist -11.7241
lhand -6.04174 -35.0691
lfingers 7.12502
lthumb 19.7922 -6.05684
rfemur -6.75279 0.771724 21.2926
rtibia 59.8402
rfoot 0.736585 -2.1248
rtoes -17.0735
lfemur -11.7035 -18.1329 -27.4459
ltibia 23.9403
lfoot -16.1576 15.0386
ltoes -1.54723
2220
root 10.5118 15.6531 2.74077 0.634361 -6.51244 -0.287134
lowerback 7.1124 1.24294 0.616221
upperback -1.39363 1.74788 0.625259
thorax -5.44216 0.85382 0.0993853
lowerneck -4.73729 -3.77287 -3.99122
upperneck 44.7278 -8.81436 8.1241
head 18.1975 -3.36148 3.17834
rclavicle 1.75303e-014 4.77083e-015
rhumerus -41.5358 -1.91281 -80.5304
rradius 31.4983
rwrist 17.4097
rhand -10.8182 -48.6467
rfingers 7.12502
rthumb 15.1957 -78.0687
lclavicle 1.75303e-014 4.77083e-015
lhumerus -34.1009 8.16962 80.7659
lradius 37.7342
lwrist -11.4107
lhand -5.54909 -35.1366
lfingers 7.12502
lthumb 20.2658 -6.17388
rfemur -7.435 0.4747 21.2712
rtibia 60.6678
rfoot -0.772628 -2.96248
rtoes -17.5261
lfemur -11.2897 -18.0705 -27.5375
ltibia 23.9041
lfoot -16.4138 14.7
ltoes -0.290146
2221
root 10.5165 15.6479 2.79595 0.588664 -6.19428 -0.0247716
lowerback 7.34107 1.18554 0.419312
upperback -1.41138 1.64724 0.473398
thorax -5.59173 0.807169 0.0584281
lowerneck -4.80616 -3.81055 -3.98525
upperneck 44.824 -8.86639 8.08797
head 18.2813 -3.38298 3.15533
rclavicle -5.87036e-015 1.78906e-015
rhumerus -41.6455 -2.03536 -80.6316
rradius 31.6843
rwrist 17.2016
rhand -10.8617 -48.6937
rfingers 7.12502
rthumb 15.1537 -78.1189
lclavicle -5.87036e-015 1.78906e-015
lhumerus -34.151 8.04994 80.8819
lradius 38.1174
lwrist -11.5137
lhand -5.54445 -34.961
lfingers 7.12502
lthumb 20.2702 -5.99869
rfemur -8.21682 0.014011 20.8548
rtibia 61.4438
rfoot -2.54148 -3.90243
rtoes -17.6643
lfemur -11.0436 -18.0204 -27.9819
ltibia 23.9571
lfoot -16.5118 14.4994
ltoes -1.6966
2222
root 10.5152 15.6506 2.85498 0.562565 -5.97821 0.00583931
lowerback 7.35436 1.16259 0.340107
upperback -1.31891 1.60632 0.433747
thorax -5.50329 0.78918 0.0674439
lowerneck -4.88296 -3.83832 -3.85099
upperneck 44.8543 -8.82688 7.83857
head 18.285 -3.36949 3.01572
rclavicle 9.65969e-016 5.36719e-015
rhumerus -41.5126 -2.27966 -80.6149
rradius 31.8038
rwrist 17.2791
rhand -10.114 -49.0494
rfingers 7.12502
rthumb 15.8739 -78.4187
lclavicle 9.65969e-016 5.36719e-015
lhumerus -33.8525 7.75126 81.0581
lradius 38.2026
lwrist -11.5373
lhand -5.80706 -34.8392
lfingers 7.12502
lthumb 20.0178 -5.85029
rfemur -9.00652 -0.225712 20.82
rtibia 62.0816
rfoot -3.95087 -5.06276
rtoes -16.9623
lfemur -10.835 -17.9571 -28.1525
ltibia 24.0389
lfoot -16.2537 14.5517
ltoes -3.67491
2223
root 10.5121 15.6524 2.91872 0.474375 -5.81554 -0.154722
lowerback 7.3909 1.10431 0.38368
upperback -1.24925 1.53506 0.485751
thorax -5.45131 0.753637 0.105644
lowerneck -5.02657 -3.80943 -3.65581
upperneck 44.9932 -8.66602 7.44672
head 18.3465 -3.31097 2.81941
rclavicle -2.08103e-016 -6.36111e-015
rhumerus -41.4263 -2.34804 -80.6021
rradius 31.9839
rwrist 17.687
rhand -9.07004 -49.5818
rfingers 7.12502
rthumb 16.879 -78.8683
lclavicle -2.08103e-016 -6.36111e-015
lhumerus -33.569 7.54441 81.1336
lradius 38.2772
lwrist -11.038
lhand -5.49261 -34.7906
lfingers 7.12502
lthumb 20.32 -5.83358
rfemur -9.70578 -0.394882 21.0397
rtibia 62.5948
rfoot -5.10218 -6.2382
rtoes -16.2562
lfemur -10.5019 -17.9967 -28.1448
ltibia 24.1154
lfoot -16.159 14.6392
ltoes -5.5656
2224
root 10.5116 15.6464 2.98168 0.306485 -5.59933 -0.159244
lowerback 7.80069 1.00713 0.281254
upperback -1.36832 1.40058 0.508318
thorax -5.81217 0.689739 0.193783
lowerneck -4.92981 -3.74668 -3.7179
upperneck 45.1389 -8.51846 7.32788
head 18.391 -3.27788 2.80566
rclavicle -2.38386e-014 -4.96962e-015
rhumerus -41.7514 -2.03968 -80.7646
rradius 32.2165
rwrist 17.5133
rhand -9.07874 -49.7498
rfingers 7.12502
rthumb 16.8706 -79.037
lclavicle -2.38386e-014 -4.96962e-015
lhumerus -33.8426 7.4191 81.1646
lradius 38.5768
lwrist -10.5429
lhand -5.29054 -35.0187
lfingers 7.12502
lthumb 20.5142 -6.08253
rfemur -10.3244 -0.678877 21.074
rtibia 63.0136
rfoot -6.30469 -7.36026
rtoes -17.2563
lfemur -10.1328 -18.1016 -28.3287
ltibia 24.303
lfoot -16.3849 14.6524
ltoes -6.04337
2225
root 10.5101 15.6416 3.04408 0.234885 -5.45307 -0.0885739
lowerback 7.65431 1.00257 0.136105
upperback -1.21698 1.37635 0.471633
thorax -5.57243 0.682457 0.244429
lowerneck -4.91997 -3.74854 -3.81748
upperneck 45.0647 -8.51251 7.39681
head 18.3514 -3.28449 2.85543
rclavicle 2.49723e-015 -4.17448e-015
rhumerus -41.6656 -1.95197 -80.9551
rradius 32.2291
rwrist 16.8427
rhand -9.88344 -49.3971
rfingers 7.12502
rthumb 16.0959 -78.7486
lclavicle 2.49723e-015 -4.17448e-015
lhumerus -33.6439 7.2135 81.3735
lradius 38.7643
lwrist -10.4876
lhand -5.77601 -35.1724
lfingers 7.12502
lthumb 20.0477 -6.18667
rfemur -11.035 -0.867599 21.031
rtibia 63.3391
rfoot -7.34817 -8.46354
rtoes -17.6463
lfemur -9.88812 -18.1397 -28.5336
ltibia 24.5434
lfoot -16.8319 14.4177
ltoes -2.83862
2226
root 10.5077 15.6432 3.10289 0.29382 -5.41283 -0.255434
lowerback 7.58132 1.03294 0.207686
upperback -1.17935 1.42485 0.504267
thorax -5.49086 0.704843 0.233986
lowerneck -4.9714 -3.75223 -3.89441
upperneck 45.1019 -8.52382 7.45557
head 18.4011 -3.29258 2.89777
rclavicle -1.65302e-014 5.36719e-015
rhumerus -41.6192 -2.02048 -81.0132
rradius 32.1271
rwrist 16.4522
rhand -10.6678 -48.9233
rfingers 7.12502
rthumb 15.3405 -78.3343
lclavicle -1.65302e-014 5.36719e-015
lhumerus -33.5294 6.98425 81.6322
lradius 38.9907
lwrist -10.8309
lhand -6.83286 -34.8478
lfingers 7.12502
lthumb 19.0316 -5.75893
rfemur -11.8833 -0.863626 21.2636
rtibia 63.5636
rfoot -8.18893 -9.51123
rtoes -16.0716
lfemur -9.80649 -18.1595 -28.4082
ltibia 24.778
lfoot -17.3208 14.1353
ltoes 1.17939
2227
root 10.5072 15.6442 3.16198 0.297214 -5.35469 -0.410424
lowerback 7.71481 1.03688 0.306969
upperback -1.22798 1.44153 0.517276
thorax -5.61564 0.709761 0.186631
lowerneck -4.86246 -3.73461 -3.96825
upperneck 45.032 -8.51918 7.57387
head 18.3405 -3.29282 2.9684
rclavicle 9.6628e-015 4.77083e-015
rhumerus -41.7343 -2.15154 -81.0018
rradius 32.1817
rwrist 16.5505
rhand -10.182 -48.9469
rfingers 7.12502
rthumb 15.8083 -78.3214
lclavicle 9.6628e-015 4.77083e-015
lhumerus -33.5907 6.97343 81.6194
lradius 39.309
lwrist -10.5219
lhand -6.14116 -35.5313
lfingers 7.12502
lthumb 19.6967 -6.5092
rfemur -12.6596 -0.838181 21.486
rtibia 63.6897
rfoot -9.18233 -10.5593
rtoes -14.4343
lfemur -9.75768 -18.2036 -28.3253
ltibia 25.0662
lfoot -17.5804 14.1059
ltoes 1.90955
2228
root 10.507 15.6368 3.22791 0.247565 -5.24458 -0.390262
lowerback 7.94102 1.02054 0.242017
upperback -1.3907 1.4129 0.462029
thorax -5.91535 0.695968 0.163127
lowerneck -4.56839 -3.70884 -3.83316
upperneck 44.9584 -8.4492 7.45798
head 18.1869 -3.26403 2.89957
rclavicle -2.65098e-015 1.98785e-015
rhumerus -42.1877 -2.24931 -80.9859
rradius 32.4734
rwrist 16.9054
rhand -8.18507 -49.5654
rfingers 7.12502
rthumb 17.7308 -78.777
lclavicle -2.65098e-015 1.98785e-015
lhumerus -33.9717 6.64479 81.6863
lradius 39.7005
lwrist -10.1496
lhand -5.81374 -35.8531
lfingers 7.12502
lthumb 20.0114 -6.86356
rfemur -13.3232 -0.919794 21.5027
rtibia 63.7463
rfoot -10.3417 -11.6567
rtoes -14.3409
lfemur -9.59976 -18.226 -28.505
ltibia 25.3659
lfoot -17.7179 14.2634
ltoes -0.341834
2229
root 10.5044 15.6197 3.29012 0.216725 -5.06357 -0.471593
lowerback 7.60012 0.978103 0.210289
upperback -1.19127 1.35103 0.483674
thorax -5.51313 0.66795 0.219662
lowerneck -4.61346 -3.69919 -3.75162
upperneck 44.7996 -8.3806 7.35082
head 18.0745 -3.23424 2.83525
rclavicle -8.19676e-015 2.38542e-015
rhumerus -41.9701 -2.29768 -80.9906
rradius 32.4968
rwrist 17.0544
rhand -7.13458 -49.812
rfingers 7.12502
rthumb 18.7414 -78.9292
lclavicle -8.19676e-015 2.38542e-015
lhumerus -33.5833 6.37976 81.8775
lradius 39.6685
lwrist -9.98637
lhand -5.92489 -36.1214
lfingers 7.12502
lthumb 19.9046 -7.12076
rfemur -13.9907 -1.08463 21.6445
rtibia 63.7585
rfoot -11.3531 -12.5089
rtoes -14.5007
lfemur -9.31507 -18.1192 -28.5858
ltibia 25.5423
lfoot -17.7326 14.3781
ltoes -3.74641
2230
root 10.4995 15.6052 3.34334 0.217937 -4.84732 -0.52491
lowerback 7.54071 0.926428 0.110044
upperback -1.10516 1.2743 0.532567
thorax -5.39223 0.634168 0.338005
lowerneck -4.77395 -3.69437 -3.8908
upperneck 44.7807 -8.36403 7.41874
head 18.1173 -3.23818 2.89289
rclavicle 1.33838e-014 -3.37934e-015
rhumerus -41.7413 -2.27659 -81.006
rradius 32.3198
rwrist 17.04
rhand -7.16101 -49.7394
rfingers 7.12502
rthumb 18.716 -78.8591
lclavicle 1.33838e-014 -3.37934e-015
lhumerus -33.1171 6.20294 82.0974
lradius 39.3935
lwrist -9.94218
lhand -6.4358 -35.8587
lfingers 7.12502
lthumb 19.4134 -6.80781
rfemur -14.7486 -1.16841 21.7984
rtibia 63.7126
rfoot -12.1607 -13.0292
rtoes -14.1418
lfemur -9.10941 -17.9769 -28.6285
ltibia 25.6687
lfoot -17.8017 14.3285
ltoes -6.46942
2231
root 10.4945 15.6007 3.40033 0.233781 -4.73132 -0.304715
lowerback 7.53284 0.941193 -0.177298
upperback -1.05411 1.26263 0.456755
thorax -5.33876 0.635914 0.422608
lowerneck -4.95872 -3.69288 -3.9186
upperneck 44.7332 -8.34349 7.42343
head 18.1358 -3.22803 2.89848
rclavicle -4.4975e-015 3.97569e-016
rhumerus -41.65 -2.41955 -81.0424
rradius 32.2502
rwrist 16.9493
rhand -7.67231 -49.6114
rfingers 7.12502
rthumb 18.2241 -78.7777
lclavicle -4.4975e-015 3.97569e-016
lhumerus -32.8308 5.95366 82.4033
lradius 39.4261
lwrist -9.79686
lhand -6.96436 -34.8008
lfingers 7.12502
lthumb 18.9051 -5.6995
rfemur -15.5626 -1.13812 21.6354
rtibia 63.5851
rfoot -12.7934 -13.4493
rtoes -14.2444
lfemur -8.96692 -17.9784 -28.9436
ltibia 25.8154
lfoot -18.1052 14.2586
ltoes -7.09447
2232
root 10.4901 15.5978 3.46089 0.206037 -4.68207 -0.152064
lowerback 7.60296 0.981682 -0.333894
upperback -1.0443 1.29669 0.360401
thorax -5.36984 0.655885 0.405176
lowerneck -5.05098 -3.69495 -3.92893
upperneck 44.6906 -8.34419 7.45212
head 18.1364 -3.22351 2.9108
rclavicle -9.58049e-015 3.47873e-015
rhumerus -41.7582 -2.56103 -81.1443
rradius 32.1544
rwrist 16.7426
rhand -8.77802 -49.1409
rfingers 7.12502
rthumb 17.1601 -78.4031
lclavicle -9.58049e-015 3.47873e-015
lhumerus -32.9102 5.92379 82.4243
lradius 39.5737
lwrist -9.8049
lhand -6.87317 -35.6791
lfingers 7.12502
lthumb 18.9928 -6.58641
rfemur -16.2982 -1.08257 21.52
rtibia 63.3486
rfoot -13.2904 -13.8427
rtoes -14.5327
lfemur -8.67236 -18.0269 -29.2104
ltibia 25.8804
lfoot -18.5467 14.101
ltoes -5.85889
2233
root 10.4858 15.5932 3.5198 0.165516 -4.57177 -0.140759
lowerback 7.73479 0.988 -0.386784
upperback -1.11181 1.29735 0.312165
thorax -5.51543 0.657206 0.381623
lowerneck -4.89567 -3.70352 -4.07228
upperneck 44.6685 -8.39926 7.63408
head 18.1115 -3.25332 3.01801
rclavicle -2.23151e-014 -1.09829e-014
rhumerus -41.9925 -2.57009 -81.2291
rradius 32.0303
rwrist 16.8294
rhand -8.98741 -48.874
rfingers 7.12502
rthumb 16.9586 -78.1536
lclavicle -2.23151e-014 -1.09829e-014
lhumerus -33.2782 5.59511 82.5443
lradius 40.1713
lwrist -9.64141
lhand -6.61445 -35.0204
lfingers 7.12502
lthumb 19.2416 -5.95229
rfemur -16.9696 -0.978808 21.5859
rtibia 63.023
rfoot -13.8333 -14.1655
rtoes -14.7729
lfemur -8.32627 -18.0447 -29.3127
ltibia 25.871
lfoot -18.9515 13.7716
ltoes -4.22867
